<?xml version="1.0" encoding="utf-8"?>
<!-- Generator: Adobe Illustrator 19.2.0, SVG Export Plug-In . SVG Version: 6.00 Build 0)  -->
<!DOCTYPE svg PUBLIC "-//W3C//DTD SVG 1.1//EN" "http://www.w3.org/Graphics/SVG/1.1/DTD/svg11.dtd">
<svg version="1.1" id="Ebene_1" xmlns="http://www.w3.org/2000/svg" xmlns:xlink="http://www.w3.org/1999/xlink" x="0px" y="0px"
	 viewBox="0 0 422.1 152.5" enable-background="new 0 0 422.1 152.5" xml:space="preserve">
<g id="XMLID_9_">
	<g id="XMLID_4_">
		<path fill="#B48B73" d="M267.2,106v-1.9h2.6c3,0,5.1-0.9,6.3-2.8c0.8-1.1,1.1-3.7,1.1-7.7V48.2c0-4.4-0.5-7.1-1.4-8.2
			c-1.3-1.5-3.3-2.3-6-2.3h-2.6v-1.9h28.6c10.5,0,18.5,1.2,23.9,3.6c5.5,2.4,9.9,6.3,13.2,11.9c3.3,5.6,5,12,5,19.3
			c0,9.8-3,17.9-8.9,24.5c-6.7,7.3-16.8,11-30.4,11H267.2z M287.2,100.9c4.4,1,8.1,1.4,11,1.4c8,0,14.6-2.8,19.9-8.4
			c5.3-5.6,7.9-13.2,7.9-22.9c0-9.7-2.6-17.3-7.9-22.9c-5.3-5.6-12.1-8.4-20.3-8.4c-3.1,0-6.6,0.5-10.6,1.5V100.9z"/>
	</g>
	<g id="XMLID_3_">
		<path fill="#B48B73" d="M367.5,67.1l25.9,25.7c4.2,4.2,7.9,7.1,10.9,8.7c3,1.5,6,2.4,9,2.6v1.9h-33.4v-1.9c2,0,3.4-0.3,4.3-1
			c0.9-0.7,1.3-1.4,1.3-2.3s-0.2-1.6-0.5-2.2c-0.3-0.7-1.4-1.9-3.2-3.7l-24.2-24v22.6c0,3.6,0.2,5.9,0.7,7c0.3,0.9,1.1,1.6,2.2,2.2
			c1.5,0.8,3.1,1.2,4.7,1.2h2.4v1.9h-29.9v-1.9h2.5c2.9,0,5-0.8,6.3-2.5c0.8-1.1,1.2-3.8,1.2-8V48.2c0-3.6-0.2-5.9-0.7-7.1
			c-0.3-0.8-1.1-1.6-2.1-2.2c-1.5-0.8-3.1-1.2-4.8-1.2h-2.5v-1.9h29.9v1.9h-2.4c-1.6,0-3.2,0.4-4.7,1.2c-1.1,0.6-1.8,1.4-2.2,2.5
			c-0.4,1.1-0.6,3.4-0.6,6.8v21.5c0.7-0.7,3.1-2.8,7.1-6.6c10.2-9.4,16.4-15.6,18.6-18.8c0.9-1.4,1.4-2.6,1.4-3.6
			c0-0.8-0.4-1.5-1.1-2.1c-0.7-0.6-1.9-0.9-3.7-0.9h-1.6v-1.9h25.8v1.9c-1.5,0-2.9,0.2-4.1,0.6c-1.2,0.4-2.8,1.1-4.6,2.2
			c-1.8,1.1-4,2.8-6.6,5.3c-0.8,0.7-4.3,4.2-10.5,10.6L367.5,67.1z"/>
	</g>
</g>
<g id="XMLID_7_">
	<g id="XMLID_2_">
		<path fill="#706F6F" d="M212.2,131.9v-0.5h0.7c0.8,0,1.4-0.3,1.7-0.8c0.2-0.3,0.3-1,0.3-2.1v-12.5c0-1.2-0.1-2-0.4-2.3
			c-0.4-0.4-0.9-0.6-1.7-0.6h-0.7v-0.5h7.9c2.9,0,5.1,0.3,6.6,1c1.5,0.7,2.7,1.7,3.6,3.3c0.9,1.5,1.4,3.3,1.4,5.3
			c0,2.7-0.8,4.9-2.4,6.7c-1.8,2-4.6,3-8.4,3H212.2z M217.7,130.5c1.2,0.3,2.2,0.4,3,0.4c2.2,0,4-0.8,5.5-2.3
			c1.5-1.5,2.2-3.6,2.2-6.3c0-2.7-0.7-4.8-2.2-6.3c-1.5-1.5-3.3-2.3-5.6-2.3c-0.9,0-1.8,0.1-2.9,0.4V130.5z"/>
		<path fill="#706F6F" d="M244.3,130.1c-1.3,1-2.2,1.6-2.5,1.8c-0.5,0.2-1.1,0.4-1.6,0.4c-0.9,0-1.6-0.3-2.2-0.9
			c-0.6-0.6-0.9-1.4-0.9-2.4c0-0.6,0.1-1.2,0.4-1.7c0.4-0.6,1.1-1.3,2-1.8s2.6-1.3,4.8-2.1v-0.5c0-1.3-0.2-2.2-0.6-2.7
			c-0.4-0.5-1-0.7-1.8-0.7c-0.6,0-1.1,0.2-1.4,0.5c-0.4,0.3-0.5,0.7-0.5,1.1l0,0.8c0,0.4-0.1,0.8-0.3,1c-0.2,0.2-0.5,0.4-0.9,0.4
			c-0.4,0-0.6-0.1-0.9-0.4s-0.3-0.6-0.3-1c0-0.8,0.4-1.6,1.3-2.2s2-1,3.5-1c1.2,0,2.1,0.2,2.8,0.6c0.6,0.3,1,0.8,1.2,1.4
			c0.2,0.4,0.3,1.2,0.3,2.5v4.4c0,1.2,0,2,0.1,2.3c0,0.3,0.1,0.5,0.2,0.6s0.2,0.1,0.4,0.1c0.2,0,0.3,0,0.4-0.1
			c0.2-0.1,0.6-0.5,1.2-1v0.8c-1.1,1.4-2.1,2.1-3,2.1c-0.5,0-0.8-0.2-1.1-0.5C244.5,131.4,244.3,130.8,244.3,130.1z M244.3,129.1v-5
			c-1.4,0.6-2.4,1-2.8,1.2c-0.8,0.4-1.3,0.9-1.6,1.3s-0.5,1-0.5,1.5c0,0.7,0.2,1.2,0.6,1.7c0.4,0.5,0.9,0.7,1.4,0.7
			C242.2,130.6,243.2,130.1,244.3,129.1z"/>
		<path fill="#706F6F" d="M256.6,127.2c-0.8-0.4-1.4-0.9-1.8-1.6c-0.4-0.7-0.6-1.5-0.6-2.3c0-1.3,0.5-2.4,1.5-3.3
			c1-0.9,2.2-1.4,3.7-1.4c1.2,0,2.3,0.3,3.2,0.9h2.8c0.4,0,0.6,0,0.7,0c0.1,0,0.1,0.1,0.1,0.1c0.1,0.1,0.1,0.2,0.1,0.5
			c0,0.2,0,0.4-0.1,0.5c0,0-0.1,0.1-0.1,0.1c-0.1,0-0.3,0-0.7,0h-1.7c0.5,0.7,0.8,1.6,0.8,2.6c0,1.2-0.5,2.3-1.4,3.1
			c-0.9,0.9-2.2,1.3-3.7,1.3c-0.6,0-1.3-0.1-2-0.3c-0.4,0.4-0.7,0.7-0.8,0.9c-0.1,0.3-0.2,0.5-0.2,0.7c0,0.2,0.1,0.3,0.2,0.5
			c0.2,0.2,0.5,0.3,0.9,0.3c0.3,0,0.9,0.1,2,0.1c2,0,3.2,0.1,3.8,0.2c0.9,0.1,1.6,0.5,2.1,1s0.8,1.2,0.8,2c0,1.1-0.5,2.1-1.5,3
			c-1.5,1.4-3.4,2.1-5.8,2.1c-1.8,0-3.4-0.4-4.6-1.2c-0.7-0.5-1.1-1-1.1-1.5c0-0.2,0.1-0.5,0.2-0.7c0.2-0.4,0.5-0.8,1-1.5
			c0.1-0.1,0.6-0.6,1.5-1.5c-0.5-0.3-0.8-0.6-1-0.8c-0.2-0.2-0.3-0.5-0.3-0.8c0-0.3,0.1-0.7,0.4-1.2
			C255,128.6,255.7,128,256.6,127.2z M256.5,131.9c-0.4,0.5-0.8,0.9-1,1.4c-0.2,0.4-0.3,0.8-0.3,1.2c0,0.5,0.3,0.9,0.8,1.2
			c0.9,0.6,2.3,0.9,4.1,0.9c1.7,0,3-0.3,3.8-0.9s1.2-1.2,1.2-1.9c0-0.5-0.2-0.8-0.7-1.1c-0.5-0.2-1.5-0.3-2.9-0.4
			C259.3,132.2,257.6,132.1,256.5,131.9z M259.1,119.2c-0.7,0-1.3,0.3-1.8,0.8s-0.7,1.4-0.7,2.6c0,1.5,0.3,2.7,1,3.5
			c0.5,0.6,1.1,0.9,1.9,0.9c0.7,0,1.3-0.3,1.8-0.8c0.5-0.5,0.7-1.4,0.7-2.5c0-1.5-0.3-2.7-1-3.5
			C260.5,119.5,259.9,119.2,259.1,119.2z"/>
		<path fill="#706F6F" d="M274.9,121.3c0.9-0.9,1.5-1.5,1.7-1.6c0.4-0.4,0.9-0.6,1.4-0.8s1-0.3,1.5-0.3c0.8,0,1.5,0.2,2.1,0.7
			c0.6,0.5,1,1.2,1.2,2.1c1-1.1,1.8-1.9,2.5-2.2c0.7-0.4,1.4-0.5,2.1-0.5c0.7,0,1.3,0.2,1.8,0.5c0.5,0.4,1,0.9,1.3,1.7
			c0.2,0.6,0.3,1.4,0.3,2.6v5.6c0,0.8,0.1,1.4,0.2,1.7c0.1,0.2,0.3,0.4,0.5,0.5c0.3,0.1,0.7,0.2,1.3,0.2v0.5h-6.4v-0.5h0.3
			c0.6,0,1-0.1,1.3-0.3c0.2-0.2,0.4-0.4,0.5-0.7c0-0.2,0.1-0.6,0.1-1.4v-5.6c0-1.1-0.1-1.8-0.4-2.2c-0.4-0.6-1-0.9-1.8-0.9
			c-0.5,0-1,0.1-1.5,0.4s-1.1,0.7-1.8,1.4l0,0.2l0,0.6v6.2c0,0.9,0,1.4,0.1,1.7c0.1,0.2,0.3,0.4,0.6,0.5c0.3,0.1,0.7,0.2,1.4,0.2
			v0.5h-6.6v-0.5c0.7,0,1.2-0.1,1.5-0.3s0.5-0.4,0.6-0.8c0-0.2,0.1-0.6,0.1-1.4v-5.6c0-1.1-0.2-1.8-0.5-2.3c-0.4-0.6-1-0.9-1.8-0.9
			c-0.5,0-1,0.1-1.5,0.4c-0.8,0.4-1.4,0.9-1.8,1.4v7c0,0.9,0.1,1.4,0.2,1.7c0.1,0.3,0.3,0.4,0.5,0.6s0.7,0.2,1.4,0.2v0.5h-6.4v-0.5
			c0.6,0,1-0.1,1.3-0.2c0.2-0.1,0.4-0.3,0.5-0.6c0.1-0.3,0.2-0.8,0.2-1.6v-5c0-1.4,0-2.4-0.1-2.8c-0.1-0.3-0.2-0.5-0.3-0.6
			s-0.3-0.2-0.6-0.2c-0.3,0-0.6,0.1-1,0.2l-0.2-0.5l3.9-1.6h0.6V121.3z"/>
		<path fill="#706F6F" d="M304.3,130.1c-1.3,1-2.2,1.6-2.5,1.8c-0.5,0.2-1.1,0.4-1.6,0.4c-0.9,0-1.6-0.3-2.2-0.9
			c-0.6-0.6-0.9-1.4-0.9-2.4c0-0.6,0.1-1.2,0.4-1.7c0.4-0.6,1.1-1.3,2-1.8s2.6-1.3,4.8-2.1v-0.5c0-1.3-0.2-2.2-0.6-2.7
			c-0.4-0.5-1-0.7-1.8-0.7c-0.6,0-1.1,0.2-1.4,0.5c-0.4,0.3-0.5,0.7-0.5,1.1l0,0.8c0,0.4-0.1,0.8-0.3,1c-0.2,0.2-0.5,0.4-0.9,0.4
			c-0.4,0-0.6-0.1-0.9-0.4s-0.3-0.6-0.3-1c0-0.8,0.4-1.6,1.3-2.2s2-1,3.5-1c1.2,0,2.1,0.2,2.8,0.6c0.6,0.3,1,0.8,1.2,1.4
			c0.2,0.4,0.3,1.2,0.3,2.5v4.4c0,1.2,0,2,0.1,2.3c0,0.3,0.1,0.5,0.2,0.6s0.2,0.1,0.4,0.1c0.2,0,0.3,0,0.4-0.1
			c0.2-0.1,0.6-0.5,1.2-1v0.8c-1.1,1.4-2.1,2.1-3,2.1c-0.5,0-0.8-0.2-1.1-0.5C304.5,131.4,304.3,130.8,304.3,130.1z M304.3,129.1v-5
			c-1.4,0.6-2.4,1-2.8,1.2c-0.8,0.4-1.3,0.9-1.6,1.3s-0.5,1-0.5,1.5c0,0.7,0.2,1.2,0.6,1.7c0.4,0.5,0.9,0.7,1.4,0.7
			C302.2,130.6,303.1,130.1,304.3,129.1z"/>
		<path fill="#706F6F" d="M316.9,118.5v2.9c1.1-2,2.2-2.9,3.4-2.9c0.5,0,1,0.2,1.3,0.5s0.5,0.7,0.5,1.1c0,0.4-0.1,0.7-0.4,0.9
			c-0.2,0.3-0.5,0.4-0.9,0.4c-0.3,0-0.7-0.2-1.1-0.5c-0.4-0.3-0.7-0.5-0.9-0.5c-0.2,0-0.4,0.1-0.6,0.3c-0.4,0.4-0.9,1-1.3,1.9v6.2
			c0,0.7,0.1,1.3,0.3,1.6c0.1,0.3,0.3,0.5,0.7,0.6s0.8,0.3,1.4,0.3v0.5h-6.7v-0.5c0.7,0,1.2-0.1,1.5-0.3c0.2-0.2,0.4-0.4,0.5-0.7
			c0-0.2,0.1-0.6,0.1-1.4V124c0-1.5,0-2.4-0.1-2.7c-0.1-0.3-0.2-0.5-0.3-0.6c-0.2-0.1-0.4-0.2-0.6-0.2c-0.3,0-0.6,0.1-1,0.2
			l-0.1-0.5l3.9-1.6H316.9z"/>
		<path fill="#706F6F" d="M344.4,121.2l7.1,7.1c1.2,1.2,2.2,2,3,2.4s1.7,0.7,2.5,0.7v0.5h-9.2v-0.5c0.5,0,0.9-0.1,1.2-0.3
			c0.2-0.2,0.4-0.4,0.4-0.6s0-0.4-0.1-0.6c-0.1-0.2-0.4-0.5-0.9-1l-6.7-6.6v6.2c0,1,0.1,1.6,0.2,1.9c0.1,0.2,0.3,0.4,0.6,0.6
			c0.4,0.2,0.8,0.3,1.3,0.3h0.7v0.5h-8.2v-0.5h0.7c0.8,0,1.4-0.2,1.7-0.7c0.2-0.3,0.3-1,0.3-2.2v-12.5c0-1-0.1-1.6-0.2-1.9
			c-0.1-0.2-0.3-0.4-0.6-0.6c-0.4-0.2-0.9-0.3-1.3-0.3h-0.7v-0.5h8.2v0.5h-0.7c-0.4,0-0.9,0.1-1.3,0.3c-0.3,0.2-0.5,0.4-0.6,0.7
			c-0.1,0.3-0.2,0.9-0.2,1.9v5.9c0.2-0.2,0.8-0.8,2-1.8c2.8-2.6,4.5-4.3,5.1-5.2c0.3-0.4,0.4-0.7,0.4-1c0-0.2-0.1-0.4-0.3-0.6
			c-0.2-0.2-0.5-0.2-1-0.2h-0.4v-0.5h7.1v0.5c-0.4,0-0.8,0.1-1.1,0.2s-0.8,0.3-1.3,0.6c-0.5,0.3-1.1,0.8-1.8,1.4
			c-0.2,0.2-1.2,1.2-2.9,2.9L344.4,121.2z"/>
		<path fill="#706F6F" d="M367.3,118.5c2,0,3.6,0.7,4.8,2.2c1,1.3,1.5,2.8,1.5,4.4c0,1.2-0.3,2.3-0.8,3.5s-1.3,2.1-2.3,2.7
			c-1,0.6-2.1,0.9-3.3,0.9c-2,0-3.5-0.8-4.7-2.3c-1-1.3-1.5-2.8-1.5-4.4c0-1.2,0.3-2.4,0.9-3.6c0.6-1.2,1.4-2.1,2.3-2.6
			C365.2,118.8,366.2,118.5,367.3,118.5z M366.9,119.5c-0.5,0-1,0.1-1.5,0.4s-0.9,0.8-1.2,1.6c-0.3,0.7-0.5,1.7-0.5,2.9
			c0,1.9,0.4,3.5,1.1,4.9c0.8,1.4,1.7,2.1,3,2.1c0.9,0,1.7-0.4,2.3-1.1s0.9-2.1,0.9-3.9c0-2.3-0.5-4.1-1.5-5.5
			C368.8,119.9,367.9,119.5,366.9,119.5z"/>
		<path fill="#706F6F" d="M377.8,120.2l4-1.6h0.5v3c0.7-1.1,1.3-2,2-2.4c0.7-0.5,1.4-0.7,2.1-0.7c1.3,0,2.4,0.5,3.3,1.5
			c1.1,1.3,1.6,2.9,1.6,4.9c0,2.2-0.6,4.1-1.9,5.6c-1.1,1.2-2.4,1.8-4,1.8c-0.7,0-1.3-0.1-1.8-0.3c-0.4-0.1-0.8-0.4-1.3-0.9v4
			c0,0.9,0.1,1.5,0.2,1.7c0.1,0.2,0.3,0.4,0.6,0.6c0.3,0.1,0.8,0.2,1.5,0.2v0.5h-6.8v-0.5h0.4c0.5,0,1-0.1,1.3-0.3
			c0.2-0.1,0.3-0.3,0.4-0.5s0.1-0.8,0.1-1.8v-12.3c0-0.8,0-1.4-0.1-1.6s-0.2-0.4-0.4-0.5c-0.2-0.1-0.4-0.2-0.7-0.2
			c-0.2,0-0.5,0.1-0.9,0.2L377.8,120.2z M382.4,122.5v4.9c0,1.1,0,1.7,0.1,2.1c0.1,0.6,0.5,1,1,1.5c0.5,0.4,1.2,0.6,2,0.6
			c0.9,0,1.7-0.4,2.3-1.1c0.8-1,1.2-2.3,1.2-4.1c0-2-0.4-3.5-1.3-4.6c-0.6-0.7-1.3-1.1-2.2-1.1c-0.5,0-0.9,0.1-1.4,0.3
			C383.7,121.1,383.2,121.6,382.4,122.5z"/>
		<path fill="#706F6F" d="M395.7,120.2l4-1.6h0.5v3c0.7-1.1,1.3-2,2-2.4c0.7-0.5,1.4-0.7,2.1-0.7c1.3,0,2.4,0.5,3.3,1.5
			c1.1,1.3,1.6,2.9,1.6,4.9c0,2.2-0.6,4.1-1.9,5.6c-1.1,1.2-2.4,1.8-4,1.8c-0.7,0-1.3-0.1-1.8-0.3c-0.4-0.1-0.8-0.4-1.3-0.9v4
			c0,0.9,0.1,1.5,0.2,1.7c0.1,0.2,0.3,0.4,0.6,0.6c0.3,0.1,0.8,0.2,1.5,0.2v0.5h-6.8v-0.5h0.4c0.5,0,1-0.1,1.3-0.3
			c0.2-0.1,0.3-0.3,0.4-0.5s0.1-0.8,0.1-1.8v-12.3c0-0.8,0-1.4-0.1-1.6s-0.2-0.4-0.4-0.5c-0.2-0.1-0.4-0.2-0.7-0.2
			c-0.2,0-0.5,0.1-0.9,0.2L395.7,120.2z M400.2,122.5v4.9c0,1.1,0,1.7,0.1,2.1c0.1,0.6,0.5,1,1,1.5c0.5,0.4,1.2,0.6,2,0.6
			c0.9,0,1.7-0.4,2.3-1.1c0.8-1,1.2-2.3,1.2-4.1c0-2-0.4-3.5-1.3-4.6c-0.6-0.7-1.3-1.1-2.2-1.1c-0.5,0-0.9,0.1-1.4,0.3
			C401.6,121.1,401,121.6,400.2,122.5z"/>
	</g>
</g>
<g id="XMLID_1_">
	<path fill="#B48B73" d="M38.7,67.3l2.8,3.4c-0.6,1.7-1.7,3.8-3.3,6.2c-4.8,0-8.9,1-12.4,3c-3.5,2-6.2,4.3-8.1,7
		c-1.9,2.7-2.8,4.9-2.8,6.7c0,1.1,0.5,2.1,1.5,2.9c1,0.8,2,1.2,3.1,1.4c2.7,0,5.4-0.5,7.9-1.4c2.5-0.9,4.8-2,6.8-3.3
		s3.3-2.1,3.9-2.5l1.4,1.8c-4.7,4.2-9.5,7.7-14.2,10.3c-4.8,2.7-9.2,4-13.2,4c-4.4,0-6.7-1.7-7-5.1c0.1-3.4,2.2-7.8,6.4-13.2
		c4.2-5.3,9-10.1,14.4-14.4C31,69.9,35.4,67.6,38.7,67.3z"/>
	<path fill="#B48B73" d="M40.9,80.9c6.7-7.5,10.9-11.3,12.5-11.6c0.8,0,1.4,0.4,1.6,1.1c0.3,0.8,0.4,1.9,0.5,3.6
		c0,1.6,0.1,2.7,0.1,3.2c1.1-1.9,2.7-3.8,4.7-5.8s3.7-3.2,4.9-3.6l2.2,1.2v0.6c0,0.9-0.1,1.8-0.3,2.8c0.4,2.8,2.2,5.3,5.4,7.6
		l-2.2,2.9c-2.1-0.2-4.9-2.7-8.5-7.3c-1.5,1.5-2.8,4.1-4,7.6c-1.2,3.6-2.5,7.9-3.9,13c-1.4,5.1-2.3,8.2-2.8,9.2l-6.5,2.8
		c1.7-5.4,3.1-10,4.1-13.7c1-3.7,1.5-7.1,1.5-10c0-3-0.7-4.6-2.2-4.8c-0.5,0-1.3,0.3-2.2,0.8c-0.9,0.5-1.7,1.3-2.4,2.4L40.9,80.9z"
		/>
	<path fill="#B48B73" d="M74.8,95.3c0.4,2.3,2.6,3.6,6.6,4c5-0.3,9.2-1.4,12.6-3.4l1.7,2.1c-2.8,3-5.9,5.2-9.2,6.8s-6.6,2.4-9.7,2.4
		c-3.2,0-5.8-1-7.8-3.1c-2-2.1-2.9-5.1-2.9-9c0-3.2,1.4-7,4.2-11.5c2.8-4.4,6.1-8.2,9.9-11.4c3.8-3.2,7-4.8,9.7-4.8
		c1.2,0,2.3,0.4,3.2,1.2c0.9,0.8,1.4,1.9,1.4,3.3c0,2.3-1.2,5.2-3.6,8.6c-2.4,3.4-5.2,6.6-8.4,9.5C79.1,92.8,76.6,94.6,74.8,95.3z
		 M86.5,73.5c-4,0-7.1,2.1-9.1,6.2c-2.1,4.1-3.1,8.5-3.1,13.1c1.6-0.6,3.5-2,5.8-4.2c2.3-2.2,4.2-4.6,5.9-7.2
		c1.7-2.6,2.5-4.6,2.5-6.1C88.4,74.1,87.8,73.5,86.5,73.5z"/>
	<path fill="#B48B73" d="M129.9,69.3l-5.3,3.9c1.4-0.9,2.8-1.4,4.3-1.4c1.5,0,2.2,0.7,2.2,2.2c0,0.3-0.2,1-0.5,2.1
		c-1.5,3.1-3,7.3-4.4,12.6c-1.4,5.3-2.2,9.5-2.4,12.5c0,0.1,0.1,0.4,0.4,1.1c0.3,0.6,0.5,1.1,0.7,1.5c0.9-0.1,2.2-0.9,3.9-2.3
		c1.6-1.4,2.8-2.4,3.6-3.1l1.9,1.6c-1.5,2.6-4,4.9-7.4,7.1c-3.4,2.2-6.7,3.3-9.8,3.3c-0.7,0-1.1-1.3-1.4-4c0.1-3.2,0.8-7.8,2.1-13.9
		s2.3-10,3-12c-3,2.9-7.4,7.4-13.1,13.4c-5.7,6-9.2,9.9-10.6,11.7l-6.3,0.5c0.2-5.2,1.8-10.5,4.8-16c3-5.4,6.9-10.3,11.7-14.4
		c4.8-4.2,9.9-7,15.2-8.6h1.1c1.3,0,2.6,0.2,3.9,0.7C128.6,68.4,129.4,68.8,129.9,69.3z M120.1,76.4c-6.2,0.5-11.1,2.8-14.7,6.8
		s-5.6,8.9-6.3,14.7c0.5-0.6,2.4-2.6,5.6-6c3.2-3.4,6.4-6.7,9.6-9.9C117.5,78.7,119.4,76.9,120.1,76.4z"/>
	<path fill="#B48B73" d="M157,66.7c0.5,0.3,3.4,0.8,8.7,1.4c0.7-0.2,1.4-0.3,2-0.3v5.4c-0.9,0.2-3.9,0.7-8.9,1.3c-5,0.6-8,1-8.9,1.1
		c-1.5,2.6-2.8,6.2-4.1,10.7c-1.3,4.5-2,8.1-2.1,11c0.3,2.3,0.8,3.4,1.5,3.4c0.5,0,1.8-0.5,3.8-1.6c2-1.1,4.5-2.5,7.3-4.2
		c2.9-1.7,4.5-2.7,4.8-2.8l2.1,3.3c-2.9,2.4-6.9,5-11.9,7.8c-5,2.8-8.8,4.3-11.2,4.3c-2,0-3.2-1.9-3.5-5.6c0.1-3.6,1.1-8.3,2.8-14.1
		s3.2-10.2,4.2-13.3c-0.3-0.6-0.7-1.4-1.2-2.3c-0.5-0.9-0.8-1.5-1-1.9c0.1-0.7,0.5-1.2,1-1.5c0.6-0.3,2.3-1.1,5.2-2.5
		c1.3-3.4,3.1-6.7,5.3-9.9s4.6-4.7,7.1-4.7c0.4,0,0.5,0.3,0.5,0.8c-3.5,4.3-5.4,7.9-5.6,10.7C155.3,64.8,156,66,157,66.7z"/>
	<path fill="#B48B73" d="M186,54.9l-1.6,5.1c-0.4,0.1-1.1,0.2-2,0.3c-0.9,0.1-1.6,0.2-2,0.3c-0.7-0.1-1.6-0.2-2.8-0.4
		c-1.2-0.2-2.2-0.3-2.9-0.4c-3.6-1.1-6.4-4-8.4-8.8l8.7-6C176.7,51.6,180.4,54.9,186,54.9z M187.5,69.9c-2.2,1.8-4.3,4.6-6.3,8.6
		c-2,3.9-3.6,8-4.9,12.1c-1.3,4.2-1.9,7.1-1.9,8.9c0,0.3,0.2,0.5,0.7,0.8c0.8-0.1,1.7-0.6,2.8-1.5c1.1-0.9,2.3-2,3.4-3.2
		c1.2-1.2,2.1-2.2,2.7-2.8l2.2,2.2c0,0.2-1,1.4-3,3.6c-2,2.2-4.2,4.1-6.5,5.9c-2.4,1.8-4.5,2.7-6.5,2.7c-2,0-3.3-1.3-4-4
		c0.1-3,1.1-7.4,3-13.2c1.9-5.7,3.4-9.6,4.6-11.6l-1.4-2.5c6.3-3.9,10.2-6.7,11.9-8.3L187.5,69.9z"/>
	<path fill="#B48B73" d="M197,72.4c-0.1-0.2-0.3-0.7-0.4-1.2s-0.3-1-0.4-1.3c0.2-2.2,1-4.1,2.5-5.8c1.5-1.7,3.6-2.5,6.2-2.5
		c4.9,0.6,8,4.1,9.3,10.8c0.2,0.1,0.8,0.2,1.9,0.3c1.1,0.1,1.8,0.2,2.3,0.3c0.8-0.2,1.8-0.3,2.9-0.3v2.6c-0.1,0.6-0.6,1.1-1.5,1.4
		c-0.9,0.3-1.8,0.6-2.9,0.7c-1,0.1-1.9,0.2-2.6,0.3c0,3.7-0.8,7.8-2.3,12.4s-4.2,8.7-8.2,12.2s-9.3,5.3-16.1,5.3h-0.8
		c0-0.8,0.3-1.8,0.8-3.1c0.5-1.3,0.8-2.1,0.8-2.6c0.5-5.5,0.9-9.8,1.4-12.8c0.4-3,1-5.4,1.6-7.1c0.6-1.7,1.4-3.3,2.3-4.8
		C194.7,75.8,195.8,74.2,197,72.4z M202.9,75.6c-2.6,1.5-4.5,3.7-5.5,6.6c-1,2.9-1.6,6.4-1.8,10.4c0,1.1,0,2.5,0.1,4.2
		s0.1,2.8,0.1,3.4v1.4c2.7-0.5,5.1-1.9,7.3-4.3c2.2-2.3,3.9-5,5.1-8.1s1.8-5.8,1.8-8.2c0-0.5,0-1-0.1-1.6c-0.1-0.6-0.1-0.9-0.1-1
		c-1.3-0.1-2.6-0.5-4.1-1.2C204.3,76.5,203.3,76,202.9,75.6z"/>
	<path fill="#B48B73" d="M231.5,86.5c4.1-3.9,8.8-7.7,14.3-11.6c5.5-3.9,10.3-6.1,14.4-6.6l2.5,2.3c-0.5,1.6-1.6,4.4-3.4,8.5
		c-1.8,4.1-3.1,7.4-4.1,10c-1,2.6-1.5,4.6-1.5,6.2c0,0.5,0.1,0.9,0.3,1.2c0,0,0.2,0.2,0.5,0.6c0.7-0.1,2-0.7,3.9-1.9
		c1.9-1.2,3-1.8,3.4-2l1.1,3c-1.9,1.6-4.1,3.4-6.8,5.2s-4.8,3-6.4,3.3c-0.6,0-1.3-0.9-2.1-2.6s-1.2-3-1.2-3.9c0-2.6,1-6.6,3.1-12
		c2.1-5.5,3.7-9.4,5.1-11.7c-3.4,1-7.2,3.4-11.5,7.2c-4.3,3.8-8.1,7.8-11.2,12c-3.2,4.2-4.9,7.4-5.2,9.3l-9.3,4.4l-2.8-3
		c0.3-0.6,1.4-2.4,3.3-5.6c1.9-3.1,3.4-5.9,4.6-8.1c1.2-2.3,2.2-4.2,2.9-5.9c0.7-1.7,1-3,1-4.1c0-0.3,0-0.6-0.1-0.8
		c-0.1-0.2-0.1-0.4-0.1-0.4l-5.9-9l9.1-3.7c2.8,1.8,4.1,5.2,4.1,10.2C233.5,80.5,232.8,83.6,231.5,86.5z"/>
</g>
<g>
</g>
<g>
</g>
<g>
</g>
<g>
</g>
<g>
</g>
<g>
</g>
</svg>
