<?xml version="1.0" encoding="utf-8"?>
<!-- Generator: Adobe Illustrator 21.0.0, SVG Export Plug-In . SVG Version: 6.00 Build 0)  -->
<svg version="1.1" id="Ebene_1" xmlns="http://www.w3.org/2000/svg" xmlns:xlink="http://www.w3.org/1999/xlink" x="0px" y="0px"
	 viewBox="0 0 422.1 422.1" style="enable-background:new 0 0 422.1 422.1;" xml:space="preserve">
<style type="text/css">
	.st0{fill:#B48B73;}
	.st1{fill:#706F6F;}
</style>
<g id="XMLID_9_">
	<g id="XMLID_4_">
		<path class="st0" d="M271,388.4v-2h2.7c3.1,0,5.3-0.9,6.5-2.9c0.8-1.1,1.1-3.8,1.1-8v-46.9c0-4.5-0.5-7.3-1.4-8.5
			c-1.3-1.6-3.4-2.4-6.2-2.4H271v-2h29.6c10.9,0,19.1,1.2,24.7,3.7c5.7,2.5,10.2,6.5,13.6,12.3c3.4,5.8,5.2,12.4,5.2,20
			c0,10.1-3.1,18.5-9.2,25.3c-6.9,7.5-17.4,11.4-31.4,11.4H271V388.4z M291.7,383.2c4.5,1,8.4,1.4,11.4,1.4c8.3,0,15.1-2.9,20.6-8.7
			c5.5-5.8,8.2-13.6,8.2-23.7c0-10-2.7-17.9-8.2-23.7c-5.5-5.8-12.5-8.7-21-8.7c-3.2,0-6.8,0.5-11,1.6V383.2z"/>
	</g>
	<g id="XMLID_3_">
		<path class="st0" d="M374.7,348.2l26.8,26.6c4.3,4.3,8.2,7.3,11.3,9c3.1,1.6,6.2,2.5,9.3,2.7v2h-34.5v-2c2.1,0,3.5-0.3,4.4-1
			s1.3-1.4,1.3-2.4s-0.2-1.7-0.5-2.3c-0.3-0.7-1.4-2-3.3-3.8l-25-24.8v23.4c0,3.7,0.2,6.1,0.7,7.2c0.3,0.9,1.1,1.7,2.3,2.3
			c1.6,0.8,3.2,1.2,4.9,1.2h2.5v2h-30.9v-2h2.6c3,0,5.2-0.8,6.5-2.6c0.8-1.1,1.2-3.9,1.2-8.3v-46.7c0-3.7-0.2-6.1-0.7-7.3
			c-0.3-0.8-1.1-1.7-2.2-2.3c-1.6-0.8-3.2-1.2-5-1.2h-2.6v-2h30.9v2h-2.5c-1.7,0-3.3,0.4-4.9,1.2c-1.1,0.6-1.9,1.4-2.3,2.6
			c-0.4,1.1-0.6,3.5-0.6,7v22.2c0.7-0.7,3.2-2.9,7.3-6.8c10.5-9.7,17-16.1,19.2-19.4c0.9-1.4,1.4-2.7,1.4-3.7c0-0.8-0.4-1.6-1.1-2.2
			c-0.7-0.6-2-0.9-3.8-0.9h-1.7v-2h26.7v2c-1.6,0-3,0.2-4.2,0.6s-2.9,1.1-4.8,2.3c-1.9,1.1-4.1,2.9-6.8,5.5
			c-0.8,0.7-4.4,4.3-10.9,11L374.7,348.2z"/>
	</g>
</g>
<g id="XMLID_7_">
	<g id="XMLID_2_">
		<path class="st1" d="M214.2,415.2v-0.5h0.7c0.8,0,1.4-0.3,1.8-0.8c0.2-0.3,0.3-1,0.3-2.2v-12.9c0-1.2-0.1-2.1-0.4-2.4
			c-0.4-0.4-0.9-0.6-1.8-0.6h-0.7v-0.5h8.2c3,0,5.3,0.3,6.8,1s2.8,1.8,3.7,3.4c0.9,1.6,1.4,3.4,1.4,5.5c0,2.8-0.8,5.1-2.5,6.9
			c-1.9,2.1-4.8,3.1-8.7,3.1H214.2z M219.8,413.8c1.2,0.3,2.3,0.4,3.1,0.4c2.3,0,4.1-0.8,5.7-2.4c1.6-1.6,2.3-3.7,2.3-6.5
			s-0.7-5-2.3-6.5s-3.4-2.4-5.8-2.4c-0.9,0-1.9,0.1-3,0.4V413.8z"/>
		<path class="st1" d="M247.3,413.4c-1.3,1-2.3,1.7-2.6,1.9c-0.5,0.2-1.1,0.4-1.7,0.4c-0.9,0-1.7-0.3-2.3-0.9
			c-0.6-0.6-0.9-1.4-0.9-2.5c0-0.6,0.1-1.2,0.4-1.8c0.4-0.6,1.1-1.3,2.1-1.9c0.9-0.5,2.7-1.3,5-2.2v-0.5c0-1.3-0.2-2.3-0.6-2.8
			c-0.4-0.5-1-0.7-1.9-0.7c-0.6,0-1.1,0.2-1.4,0.5c-0.4,0.3-0.5,0.7-0.5,1.1v0.8c0,0.4-0.1,0.8-0.3,1c-0.2,0.2-0.5,0.4-0.9,0.4
			s-0.6-0.1-0.9-0.4c-0.3-0.3-0.3-0.6-0.3-1c0-0.8,0.4-1.7,1.3-2.3c0.9-0.6,2.1-1,3.6-1c1.2,0,2.2,0.2,2.9,0.6
			c0.6,0.3,1,0.8,1.2,1.4c0.2,0.4,0.3,1.2,0.3,2.6v4.5c0,1.2,0,2.1,0.1,2.4c0,0.3,0.1,0.5,0.2,0.6s0.2,0.1,0.4,0.1
			c0.2,0,0.3,0,0.4-0.1c0.2-0.1,0.6-0.5,1.2-1v0.8c-1.1,1.4-2.2,2.2-3.1,2.2c-0.5,0-0.8-0.2-1.1-0.5
			C247.6,414.7,247.3,414.1,247.3,413.4z M247.3,412.3v-5.2c-1.4,0.6-2.5,1-2.9,1.2c-0.8,0.4-1.3,0.9-1.7,1.3s-0.5,1-0.5,1.6
			c0,0.7,0.2,1.2,0.6,1.8c0.4,0.5,0.9,0.7,1.4,0.7C245.2,413.9,246.2,413.4,247.3,412.3z"/>
		<path class="st1" d="M260.1,410.4c-0.8-0.4-1.4-0.9-1.9-1.7c-0.4-0.7-0.6-1.6-0.6-2.4c0-1.3,0.5-2.5,1.6-3.4
			c1-0.9,2.3-1.4,3.8-1.4c1.2,0,2.4,0.3,3.3,0.9h2.9c0.4,0,0.6,0,0.7,0c0.1,0,0.1,0.1,0.1,0.1c0.1,0.1,0.1,0.2,0.1,0.5
			c0,0.2,0,0.4-0.1,0.5l-0.1,0.1c-0.1,0-0.3,0-0.7,0h-1.8c0.5,0.7,0.8,1.7,0.8,2.7c0,1.2-0.5,2.4-1.4,3.2c-0.9,0.9-2.3,1.3-3.8,1.3
			c-0.6,0-1.3-0.1-2.1-0.3c-0.4,0.4-0.7,0.7-0.8,0.9c-0.1,0.3-0.2,0.5-0.2,0.7s0.1,0.3,0.2,0.5c0.2,0.2,0.5,0.3,0.9,0.3
			c0.3,0,0.9,0.1,2.1,0.1c2.1,0,3.3,0.1,3.9,0.2c0.9,0.1,1.7,0.5,2.2,1c0.5,0.5,0.8,1.2,0.8,2.1c0,1.1-0.5,2.2-1.6,3.1
			c-1.6,1.4-3.5,2.2-6,2.2c-1.9,0-3.5-0.4-4.8-1.2c-0.7-0.5-1.1-1-1.1-1.6c0-0.2,0.1-0.5,0.2-0.7c0.2-0.4,0.5-0.8,1-1.6
			c0.1-0.1,0.6-0.6,1.6-1.6c-0.5-0.3-0.8-0.6-1-0.8s-0.3-0.5-0.3-0.8c0-0.3,0.1-0.7,0.4-1.2C258.4,411.8,259.1,411.2,260.1,410.4z
			 M260,415.2c-0.4,0.5-0.8,0.9-1,1.4c-0.2,0.4-0.3,0.8-0.3,1.2c0,0.5,0.3,0.9,0.8,1.2c0.9,0.6,2.4,0.9,4.2,0.9
			c1.8,0,3.1-0.3,3.9-0.9c0.8-0.6,1.2-1.2,1.2-2c0-0.5-0.2-0.8-0.7-1.1c-0.5-0.2-1.6-0.3-3-0.4C262.9,415.5,261.1,415.4,260,415.2z
			 M262.7,402.1c-0.7,0-1.3,0.3-1.9,0.8s-0.7,1.4-0.7,2.7c0,1.6,0.3,2.8,1,3.6c0.5,0.6,1.1,0.9,2,0.9c0.7,0,1.3-0.3,1.9-0.8
			c0.5-0.5,0.7-1.4,0.7-2.6c0-1.6-0.3-2.8-1-3.6C264.1,402.4,263.5,402.1,262.7,402.1z"/>
		<path class="st1" d="M279,404.3c0.9-0.9,1.6-1.6,1.8-1.7c0.4-0.4,0.9-0.6,1.4-0.8s1-0.3,1.6-0.3c0.8,0,1.6,0.2,2.2,0.7
			s1,1.2,1.2,2.2c1-1.1,1.9-2,2.6-2.3c0.7-0.4,1.4-0.5,2.2-0.5c0.7,0,1.3,0.2,1.9,0.5c0.5,0.4,1,0.9,1.3,1.8
			c0.2,0.6,0.3,1.4,0.3,2.7v5.8c0,0.8,0.1,1.4,0.2,1.8c0.1,0.2,0.3,0.4,0.5,0.5c0.3,0.1,0.7,0.2,1.3,0.2v0.5h-6.6v-0.5h0.3
			c0.6,0,1-0.1,1.3-0.3c0.2-0.2,0.4-0.4,0.5-0.7c0-0.2,0.1-0.6,0.1-1.4v-5.8c0-1.1-0.1-1.9-0.4-2.3c-0.4-0.6-1-0.9-1.9-0.9
			c-0.5,0-1,0.1-1.6,0.4c-0.5,0.3-1.1,0.7-1.9,1.4v0.2v0.6v6.4c0,0.9,0,1.4,0.1,1.8c0.1,0.2,0.3,0.4,0.6,0.5
			c0.3,0.1,0.7,0.2,1.4,0.2v0.5h-6.8v-0.5c0.7,0,1.2-0.1,1.6-0.3s0.5-0.4,0.6-0.8c0-0.2,0.1-0.6,0.1-1.4v-5.8c0-1.1-0.2-1.9-0.5-2.4
			c-0.4-0.6-1-0.9-1.9-0.9c-0.5,0-1,0.1-1.6,0.4c-0.8,0.4-1.4,0.9-1.9,1.4v7.2c0,0.9,0.1,1.4,0.2,1.8c0.1,0.3,0.3,0.4,0.5,0.6
			c0.2,0.2,0.7,0.2,1.4,0.2v0.5h-6.6v-0.5c0.6,0,1-0.1,1.3-0.2c0.2-0.1,0.4-0.3,0.5-0.6c0.1-0.3,0.2-0.8,0.2-1.7v-5.2
			c0-1.4,0-2.5-0.1-2.9c-0.1-0.3-0.2-0.5-0.3-0.6c-0.1-0.1-0.3-0.2-0.6-0.2c-0.3,0-0.6,0.1-1,0.2l-0.2-0.5l4-1.7h0.6v2.7H279z"/>
		<path class="st1" d="M309.4,413.4c-1.3,1-2.3,1.7-2.6,1.9c-0.5,0.2-1.1,0.4-1.7,0.4c-0.9,0-1.7-0.3-2.3-0.9s-0.9-1.4-0.9-2.5
			c0-0.6,0.1-1.2,0.4-1.8c0.4-0.6,1.1-1.3,2.1-1.9c0.9-0.5,2.7-1.3,5-2.2v-0.5c0-1.3-0.2-2.3-0.6-2.8c-0.4-0.5-1-0.7-1.9-0.7
			c-0.6,0-1.1,0.2-1.4,0.5c-0.4,0.3-0.5,0.7-0.5,1.1v0.8c0,0.4-0.1,0.8-0.3,1c-0.2,0.2-0.5,0.4-0.9,0.4c-0.4,0-0.6-0.1-0.9-0.4
			c-0.3-0.3-0.3-0.6-0.3-1c0-0.8,0.4-1.7,1.3-2.3c0.9-0.6,2.1-1,3.6-1c1.2,0,2.2,0.2,2.9,0.6c0.6,0.3,1,0.8,1.2,1.4
			c0.2,0.4,0.3,1.2,0.3,2.6v4.5c0,1.2,0,2.1,0.1,2.4c0,0.3,0.1,0.5,0.2,0.6c0.1,0.1,0.2,0.1,0.4,0.1c0.2,0,0.3,0,0.4-0.1
			c0.2-0.1,0.6-0.5,1.2-1v0.8c-1.1,1.4-2.2,2.2-3.1,2.2c-0.5,0-0.8-0.2-1.1-0.5C309.6,414.7,309.4,414.1,309.4,413.4z M309.4,412.3
			v-5.2c-1.4,0.6-2.5,1-2.9,1.2c-0.8,0.4-1.3,0.9-1.7,1.3s-0.5,1-0.5,1.6c0,0.7,0.2,1.2,0.6,1.8c0.4,0.5,0.9,0.7,1.4,0.7
			C307.2,413.9,308.2,413.4,309.4,412.3z"/>
		<path class="st1" d="M322.4,401.4v3c1.1-2.1,2.3-3,3.5-3c0.5,0,1,0.2,1.3,0.5c0.3,0.3,0.5,0.7,0.5,1.1c0,0.4-0.1,0.7-0.4,0.9
			c-0.2,0.3-0.5,0.4-0.9,0.4c-0.3,0-0.7-0.2-1.1-0.5c-0.4-0.3-0.7-0.5-0.9-0.5c-0.2,0-0.4,0.1-0.6,0.3c-0.4,0.4-0.9,1-1.3,2v6.4
			c0,0.7,0.1,1.3,0.3,1.7c0.1,0.3,0.3,0.5,0.7,0.6c0.4,0.1,0.8,0.3,1.4,0.3v0.5H318v-0.5c0.7,0,1.2-0.1,1.6-0.3
			c0.2-0.2,0.4-0.4,0.5-0.7c0-0.2,0.1-0.6,0.1-1.4v-5.1c0-1.6,0-2.5-0.1-2.8c-0.1-0.3-0.2-0.5-0.3-0.6c-0.2-0.1-0.4-0.2-0.6-0.2
			c-0.3,0-0.6,0.1-1,0.2l-0.1-0.5l4-1.7h0.4V401.4z"/>
		<path class="st1" d="M350.9,404.2l7.3,7.3c1.2,1.2,2.3,2.1,3.1,2.5c0.8,0.4,1.8,0.7,2.6,0.7v0.5h-9.5v-0.5c0.5,0,0.9-0.1,1.2-0.3
			c0.2-0.2,0.4-0.4,0.4-0.6c0-0.2,0-0.4-0.1-0.6c-0.1-0.2-0.4-0.5-0.9-1l-6.9-6.8v6.4c0,1,0.1,1.7,0.2,2c0.1,0.2,0.3,0.4,0.6,0.6
			c0.4,0.2,0.8,0.3,1.3,0.3h0.7v0.5h-8.5v-0.5h0.7c0.8,0,1.4-0.2,1.8-0.7c0.2-0.3,0.3-1,0.3-2.3v-12.9c0-1-0.1-1.7-0.2-2
			c-0.1-0.2-0.3-0.4-0.6-0.6c-0.4-0.2-0.9-0.3-1.3-0.3h-0.7v-0.5h8.5v0.5h-0.7c-0.4,0-0.9,0.1-1.3,0.3c-0.3,0.2-0.5,0.4-0.6,0.7
			c-0.1,0.3-0.2,0.9-0.2,2v6.1c0.2-0.2,0.8-0.8,2.1-1.9c2.9-2.7,4.7-4.4,5.3-5.4c0.3-0.4,0.4-0.7,0.4-1c0-0.2-0.1-0.4-0.3-0.6
			c-0.2-0.2-0.5-0.2-1-0.2H354v-0.5h7.3v0.5c-0.4,0-0.8,0.1-1.1,0.2c-0.3,0.1-0.8,0.3-1.3,0.6c-0.5,0.3-1.1,0.8-1.9,1.4
			c-0.2,0.2-1.2,1.2-3,3L350.9,404.2z"/>
		<path class="st1" d="M374.5,401.4c2.1,0,3.7,0.7,5,2.3c1,1.3,1.6,2.9,1.6,4.5c0,1.2-0.3,2.4-0.8,3.6c-0.5,1.2-1.3,2.2-2.4,2.8
			c-1,0.6-2.2,0.9-3.4,0.9c-2.1,0-3.6-0.8-4.9-2.4c-1-1.3-1.6-2.9-1.6-4.5c0-1.2,0.3-2.5,0.9-3.7s1.4-2.2,2.4-2.7
			C372.4,401.7,373.4,401.4,374.5,401.4z M374.1,402.4c-0.5,0-1,0.1-1.6,0.4c-0.5,0.3-0.9,0.8-1.2,1.7c-0.3,0.7-0.5,1.8-0.5,3
			c0,2,0.4,3.6,1.1,5.1c0.8,1.4,1.8,2.2,3.1,2.2c0.9,0,1.8-0.4,2.4-1.1c0.6-0.7,0.9-2.2,0.9-4c0-2.4-0.5-4.2-1.6-5.7
			C376.1,402.8,375.2,402.4,374.1,402.4z"/>
		<path class="st1" d="M385.4,403.1l4.1-1.7h0.5v3.1c0.7-1.1,1.3-2.1,2.1-2.5c0.7-0.5,1.4-0.7,2.2-0.7c1.3,0,2.5,0.5,3.4,1.6
			c1.1,1.3,1.7,3,1.7,5.1c0,2.3-0.6,4.2-2,5.8c-1.1,1.2-2.5,1.9-4.1,1.9c-0.7,0-1.3-0.1-1.9-0.3c-0.4-0.1-0.8-0.4-1.3-0.9v4.1
			c0,0.9,0.1,1.6,0.2,1.8c0.1,0.2,0.3,0.4,0.6,0.6c0.3,0.1,0.8,0.2,1.6,0.2v0.5h-7v-0.5h0.4c0.5,0,1-0.1,1.3-0.3
			c0.2-0.1,0.3-0.3,0.4-0.5c0.1-0.2,0.1-0.8,0.1-1.9v-12.7c0-0.8,0-1.4-0.1-1.7c-0.1-0.2-0.2-0.4-0.4-0.5c-0.2-0.1-0.4-0.2-0.7-0.2
			c-0.2,0-0.5,0.1-0.9,0.2L385.4,403.1z M390.2,405.5v5.1c0,1.1,0,1.8,0.1,2.2c0.1,0.6,0.5,1,1,1.6c0.5,0.4,1.2,0.6,2.1,0.6
			c0.9,0,1.8-0.4,2.4-1.1c0.8-1,1.2-2.4,1.2-4.2c0-2.1-0.4-3.6-1.3-4.8c-0.6-0.7-1.3-1.1-2.3-1.1c-0.5,0-0.9,0.1-1.4,0.3
			C391.5,404.1,391,404.6,390.2,405.5z"/>
		<path class="st1" d="M403.9,403.1l4.1-1.7h0.5v3.1c0.7-1.1,1.3-2.1,2.1-2.5c0.7-0.5,1.4-0.7,2.2-0.7c1.3,0,2.5,0.5,3.4,1.6
			c1.1,1.3,1.7,3,1.7,5.1c0,2.3-0.6,4.2-2,5.8c-1.1,1.2-2.5,1.9-4.1,1.9c-0.7,0-1.3-0.1-1.9-0.3c-0.4-0.1-0.8-0.4-1.3-0.9v4.1
			c0,0.9,0.1,1.6,0.2,1.8c0.1,0.2,0.3,0.4,0.6,0.6c0.3,0.1,0.8,0.2,1.6,0.2v0.5h-7v-0.5h0.4c0.5,0,1-0.1,1.3-0.3
			c0.2-0.1,0.3-0.3,0.4-0.5s0.1-0.8,0.1-1.9v-12.7c0-0.8,0-1.4-0.1-1.7s-0.2-0.4-0.4-0.5c-0.2-0.1-0.4-0.2-0.7-0.2
			c-0.2,0-0.5,0.1-0.9,0.2L403.9,403.1z M408.6,405.5v5.1c0,1.1,0,1.8,0.1,2.2c0.1,0.6,0.5,1,1,1.6c0.5,0.4,1.2,0.6,2.1,0.6
			c0.9,0,1.8-0.4,2.4-1.1c0.8-1,1.2-2.4,1.2-4.2c0-2.1-0.4-3.6-1.3-4.8c-0.6-0.7-1.3-1.1-2.3-1.1c-0.5,0-0.9,0.1-1.4,0.3
			C410,404.1,409.4,404.6,408.6,405.5z"/>
	</g>
</g>
<g id="XMLID_1_">
	<path class="st0" d="M34.7,348.4l2.9,3.5c-0.6,1.8-1.8,3.9-3.4,6.4c-5,0-9.2,1-12.8,3.1s-6.4,4.4-8.4,7.2s-2.9,5.1-2.9,6.9
		c0,1.1,0.5,2.2,1.6,3s2.1,1.2,3.2,1.4c2.8,0,5.6-0.5,8.2-1.4s5-2.1,7-3.4c2.1-1.3,3.4-2.2,4-2.6l1.4,1.9c-4.9,4.3-9.8,8-14.7,10.7
		c-5,2.8-9.5,4.1-13.6,4.1c-4.5,0-6.9-1.8-7.2-5.3c0.1-3.5,2.3-8.1,6.6-13.6c4.3-5.5,9.3-10.4,14.9-14.9
		C26.8,351.1,31.3,348.7,34.7,348.4z"/>
	<path class="st0" d="M37,362.5c6.9-7.8,11.3-11.7,12.9-12c0.8,0,1.4,0.4,1.7,1.1c0.3,0.8,0.4,2,0.5,3.7c0,1.7,0.1,2.8,0.1,3.3
		c1.1-2,2.8-3.9,4.9-6c2.1-2.1,3.8-3.3,5.1-3.7l2.3,1.2v0.6c0,0.9-0.1,1.9-0.3,2.9c0.4,2.9,2.3,5.5,5.6,7.9l-2.3,3
		c-2.2-0.2-5.1-2.8-8.8-7.5c-1.6,1.6-2.9,4.2-4.1,7.9c-1.2,3.7-2.6,8.2-4,13.4c-1.4,5.3-2.4,8.5-2.9,9.5l-6.7,2.9
		c1.8-5.6,3.2-10.3,4.2-14.2s1.6-7.3,1.6-10.3c0-3.1-0.7-4.8-2.3-5c-0.5,0-1.3,0.3-2.3,0.8c-0.9,0.5-1.8,1.3-2.5,2.5L37,362.5z"/>
	<path class="st0" d="M72.1,377.4c0.4,2.4,2.7,3.7,6.8,4.1c5.2-0.3,9.5-1.4,13-3.5l1.8,2.2c-2.9,3.1-6.1,5.4-9.5,7
		c-3.4,1.7-6.8,2.5-10,2.5c-3.3,0-6-1-8.1-3.2c-2.1-2.2-3-5.3-3-9.3c0-3.3,1.4-7.2,4.3-11.9c2.9-4.5,6.3-8.5,10.2-11.8s7.2-5,10-5
		c1.2,0,2.4,0.4,3.3,1.2c0.9,0.8,1.4,2,1.4,3.4c0,2.4-1.2,5.4-3.7,8.9c-2.5,3.5-5.4,6.8-8.7,9.8C76.5,374.8,73.9,376.7,72.1,377.4z
		 M84.2,354.8c-4.1,0-7.3,2.2-9.4,6.4c-2.2,4.2-3.2,8.8-3.2,13.5c1.7-0.6,3.6-2.1,6-4.3c2.4-2.3,4.3-4.8,6.1-7.4
		c1.8-2.7,2.6-4.8,2.6-6.3C86.1,355.5,85.5,354.8,84.2,354.8z"/>
	<path class="st0" d="M129.1,350.5l-5.5,4c1.4-0.9,2.9-1.4,4.4-1.4c1.6,0,2.3,0.7,2.3,2.3c0,0.3-0.2,1-0.5,2.2
		c-1.6,3.2-3.1,7.5-4.5,13c-1.4,5.5-2.3,9.8-2.5,12.9c0,0.1,0.1,0.4,0.4,1.1c0.3,0.6,0.5,1.1,0.7,1.6c0.9-0.1,2.3-0.9,4-2.4
		c1.7-1.4,2.9-2.5,3.7-3.2l2,1.7c-1.6,2.7-4.1,5.1-7.7,7.3c-3.5,2.3-6.9,3.4-10.1,3.4c-0.7,0-1.1-1.3-1.4-4.1
		c0.1-3.3,0.8-8.1,2.2-14.4s2.4-10.3,3.1-12.4c-3.1,3-7.7,7.7-13.5,13.9c-5.9,6.2-9.5,10.2-11,12.1l-6.5,0.5
		c0.2-5.4,1.9-10.9,5-16.5c3.1-5.6,7.1-10.7,12.1-14.9c5-4.3,10.2-7.2,15.7-8.9h1.1c1.3,0,2.7,0.2,4,0.7
		C127.7,349.6,128.5,350,129.1,350.5z M118.9,357.8c-6.4,0.5-11.5,2.9-15.2,7c-3.7,4.1-5.8,9.2-6.5,15.2c0.5-0.6,2.5-2.7,5.8-6.2
		c3.3-3.5,6.6-6.9,9.9-10.2C116.2,360.2,118.2,358.4,118.9,357.8z"/>
	<path class="st0" d="M157.1,347.8c0.5,0.3,3.5,0.8,9,1.4c0.7-0.2,1.4-0.3,2.1-0.3v5.6c-0.9,0.2-4,0.7-9.2,1.3
		c-5.2,0.6-8.3,1-9.2,1.1c-1.6,2.7-2.9,6.4-4.2,11.1c-1.3,4.7-2.1,8.4-2.2,11.4c0.3,2.4,0.8,3.5,1.6,3.5c0.5,0,1.9-0.5,3.9-1.7
		c2.1-1.1,4.7-2.6,7.5-4.3c3-1.8,4.7-2.8,5-2.9l2.2,3.4c-3,2.5-7.1,5.2-12.3,8.1c-5.2,2.9-9.1,4.4-11.6,4.4c-2.1,0-3.3-2-3.6-5.8
		c0.1-3.7,1.1-8.6,2.9-14.6s3.3-10.5,4.3-13.8c-0.3-0.6-0.7-1.4-1.2-2.4c-0.5-0.9-0.8-1.6-1-2c0.1-0.7,0.5-1.2,1-1.6
		c0.6-0.3,2.4-1.1,5.4-2.6c1.3-3.5,3.2-6.9,5.5-10.2s4.8-4.9,7.3-4.9c0.4,0,0.5,0.3,0.5,0.8c-3.6,4.4-5.6,8.2-5.8,11.1
		C155.3,345.8,156,347.1,157.1,347.8z"/>
	<path class="st0" d="M187.1,335.6l-1.7,5.3c-0.4,0.1-1.1,0.2-2.1,0.3c-0.9,0.1-1.7,0.2-2.1,0.3c-0.7-0.1-1.7-0.2-2.9-0.4
		c-1.2-0.2-2.3-0.3-3-0.4c-3.7-1.1-6.6-4.1-8.7-9.1l9-6.2C177.4,332.2,181.3,335.6,187.1,335.6z M188.6,351.1
		c-2.3,1.9-4.4,4.8-6.5,8.9c-2.1,4-3.7,8.3-5.1,12.5c-1.3,4.3-2,7.3-2,9.2c0,0.3,0.2,0.5,0.7,0.8c0.8-0.1,1.8-0.6,2.9-1.6
		c1.1-0.9,2.4-2.1,3.5-3.3c1.2-1.2,2.2-2.3,2.8-2.9l2.3,2.3c0,0.2-1,1.4-3.1,3.7c-2.1,2.3-4.3,4.2-6.7,6.1c-2.5,1.9-4.7,2.8-6.7,2.8
		c-2.1,0-3.4-1.3-4.1-4.1c0.1-3.1,1.1-7.7,3.1-13.6c2-5.9,3.5-9.9,4.8-12l-1.4-2.6c6.5-4,10.5-6.9,12.3-8.6L188.6,351.1z"/>
	<path class="st0" d="M198.4,353.7c-0.1-0.2-0.3-0.7-0.4-1.2c-0.1-0.5-0.3-1-0.4-1.3c0.2-2.3,1-4.2,2.6-6c1.6-1.8,3.7-2.6,6.4-2.6
		c5.1,0.6,8.3,4.2,9.6,11.2c0.2,0.1,0.8,0.2,2,0.3c1.1,0.1,1.9,0.2,2.4,0.3c0.8-0.2,1.9-0.3,3-0.3v2.7c-0.1,0.6-0.6,1.1-1.6,1.4
		c-0.9,0.3-1.9,0.6-3,0.7c-1,0.1-2,0.2-2.7,0.3c0,3.8-0.8,8.1-2.4,12.8s-4.3,9-8.5,12.6c-4.1,3.6-9.6,5.5-16.6,5.5H188
		c0-0.8,0.3-1.9,0.8-3.2c0.5-1.3,0.8-2.2,0.8-2.7c0.5-5.7,0.9-10.1,1.4-13.2c0.4-3.1,1-5.6,1.7-7.3c0.6-1.8,1.4-3.4,2.4-5
		C196.1,357.2,197.2,355.6,198.4,353.7z M204.5,357c-2.7,1.6-4.7,3.8-5.7,6.8c-1,3-1.7,6.6-1.9,10.8c0,1.1,0,2.6,0.1,4.3
		c0.1,1.8,0.1,2.9,0.1,3.5v1.4c2.8-0.5,5.3-2,7.5-4.4c2.3-2.4,4-5.2,5.3-8.4c1.2-3.2,1.9-6,1.9-8.5c0-0.5,0-1-0.1-1.7
		s-0.1-0.9-0.1-1c-1.3-0.1-2.7-0.5-4.2-1.2C206,357.9,205,357.4,204.5,357z"/>
	<path class="st0" d="M234.1,368.3c4.2-4,9.1-8,14.8-12c5.7-4,10.7-6.3,14.9-6.8l2.6,2.4c-0.5,1.7-1.7,4.5-3.5,8.8
		c-1.9,4.2-3.2,7.7-4.2,10.3c-1,2.7-1.6,4.8-1.6,6.4c0,0.5,0.1,0.9,0.3,1.2c0,0,0.2,0.2,0.5,0.6c0.7-0.1,2.1-0.7,4-2
		c2-1.2,3.1-1.9,3.5-2.1l1.1,3.1c-2,1.7-4.2,3.5-7,5.4c-2.8,1.9-5,3.1-6.6,3.4c-0.6,0-1.3-0.9-2.2-2.7c-0.8-1.8-1.2-3.1-1.2-4
		c0-2.7,1-6.8,3.2-12.4c2.2-5.7,3.8-9.7,5.3-12.1c-3.5,1-7.4,3.5-11.9,7.4s-8.4,8.1-11.6,12.4c-3.3,4.3-5.1,7.7-5.4,9.6l-9.6,4.5
		l-2.9-3.1c0.3-0.6,1.4-2.5,3.4-5.8c2-3.2,3.5-6.1,4.8-8.4c1.2-2.4,2.3-4.3,3-6.1c0.7-1.8,1-3.1,1-4.2c0-0.3,0-0.6-0.1-0.8
		c-0.1-0.2-0.1-0.4-0.1-0.4l-6.1-9.3l9.4-3.8c2.9,1.9,4.2,5.4,4.2,10.5C236.2,362.1,235.5,365.3,234.1,368.3z"/>
</g>
</svg>
